<svg width="25" height="24" viewBox="0 0 25 24" fill="none" xmlns="http://www.w3.org/2000/svg">
<path d="M9.3999 11.75C9.06838 11.75 8.75044 11.8817 8.51602 12.1161C8.2816 12.3505 8.1499 12.6685 8.1499 13C8.1499 13.3315 8.2816 13.6495 8.51602 13.8839C8.75044 14.1183 9.06838 14.25 9.3999 14.25C9.56405 14.25 9.7266 14.2177 9.87826 14.1548C10.0299 14.092 10.1677 14 10.2838 13.8839C10.3999 13.7678 10.4919 13.63 10.5548 13.4784C10.6176 13.3267 10.6499 13.1642 10.6499 13C10.6499 12.8358 10.6176 12.6733 10.5548 12.5216C10.4919 12.37 10.3999 12.2322 10.2838 12.1161C10.1677 12 10.0299 11.908 9.87826 11.8452C9.7266 11.7823 9.56405 11.75 9.3999 11.75ZM15.3999 11.75C15.0684 11.75 14.7504 11.8817 14.516 12.1161C14.2816 12.3505 14.1499 12.6685 14.1499 13C14.1499 13.3315 14.2816 13.6495 14.516 13.8839C14.7504 14.1183 15.0684 14.25 15.3999 14.25C15.7314 14.25 16.0494 14.1183 16.2838 13.8839C16.5182 13.6495 16.6499 13.3315 16.6499 13C16.6499 12.6685 16.5182 12.3505 16.2838 12.1161C16.0494 11.8817 15.7314 11.75 15.3999 11.75ZM12.3999 2C11.0867 2 9.78632 2.25866 8.57307 2.7612C7.35981 3.26375 6.25742 4.00035 5.32883 4.92893C3.45347 6.8043 2.3999 9.34784 2.3999 12C2.3999 14.6522 3.45347 17.1957 5.32883 19.0711C6.25742 19.9997 7.35981 20.7362 8.57307 21.2388C9.78632 21.7413 11.0867 22 12.3999 22C15.0521 22 17.5956 20.9464 19.471 19.0711C21.3463 17.1957 22.3999 14.6522 22.3999 12C22.3999 10.6868 22.1412 9.38642 21.6387 8.17317C21.1362 6.95991 20.3996 5.85752 19.471 4.92893C18.5424 4.00035 17.44 3.26375 16.2267 2.7612C15.0135 2.25866 13.7131 2 12.3999 2ZM12.3999 20C7.9899 20 4.3999 16.41 4.3999 12C4.3999 11.71 4.3999 11.42 4.4499 11.14C6.8099 10.09 8.6799 8.16 9.6599 5.77C11.4699 8.33 14.4499 10 17.8199 10C18.5999 10 19.3499 9.91 20.0699 9.74C20.2799 10.45 20.3999 11.21 20.3999 12C20.3999 16.41 16.8099 20 12.3999 20Z" fill="#B5B5B5"/>
</svg>
