<svg width="42" height="43" viewBox="0 0 42 43" fill="none" xmlns="http://www.w3.org/2000/svg">
<path d="M30.8008 12.0001C30.8008 17.5201 26.3208 22.0001 20.8008 22.0001C15.2808 22.0001 10.8008 17.5201 10.8008 12.0001C10.8008 6.48006 15.2808 2.00006 20.8008 2.00006C26.3208 2.00006 30.8008 6.48006 30.8008 12.0001Z" stroke="#B5B5B5" stroke-width="2" stroke-linecap="round" stroke-linejoin="round"/>
<path d="M24.5116 15.1799L21.4116 13.3299C20.8716 13.0099 20.4316 12.2399 20.4316 11.6099V7.50989" stroke="#B5B5B5" stroke-width="2" stroke-linecap="round" stroke-linejoin="round"/>
<path d="M1.46094 39V30.0586H2.59766V33.9258H6.72266V30.0586H7.85938V39H6.72266V34.875H2.59766V39H1.46094ZM9.99219 31.2656V29.9297H11.293V31.2656H9.99219ZM10.1094 39V32.543H11.1875V39H10.1094ZM12.6641 37.6992L13.4727 37.2305C13.9336 37.9414 14.5508 38.2969 15.3242 38.2969C15.7617 38.2969 16.1133 38.2148 16.3789 38.0508C16.6445 37.8867 16.7773 37.6562 16.7773 37.3594C16.7773 37.25 16.7578 37.1484 16.7188 37.0547C16.6875 36.9609 16.6172 36.875 16.5078 36.7969C16.4062 36.7109 16.3164 36.6445 16.2383 36.5977C16.168 36.543 16.0312 36.4805 15.8281 36.4102C15.6328 36.3398 15.4844 36.2891 15.3828 36.2578C15.2891 36.2266 15.1094 36.168 14.8438 36.082C14.5625 35.9961 14.3242 35.9102 14.1289 35.8242C13.9414 35.7305 13.7383 35.6133 13.5195 35.4727C13.3086 35.3242 13.1484 35.1406 13.0391 34.9219C12.9297 34.7031 12.875 34.4531 12.875 34.1719C12.875 33.625 13.0977 33.1836 13.543 32.8477C13.9961 32.5039 14.5898 32.332 15.3242 32.332C15.8555 32.332 16.3477 32.4727 16.8008 32.7539C17.2539 33.0273 17.582 33.3633 17.7852 33.7617L17.0469 34.2305C16.8672 33.957 16.6289 33.7266 16.332 33.5391C16.0352 33.3438 15.7031 33.2461 15.3359 33.2461C14.8984 33.2461 14.5625 33.332 14.3281 33.5039C14.1016 33.668 13.9883 33.8945 13.9883 34.1836C13.9883 34.3555 14.0312 34.5117 14.1172 34.6523C14.2109 34.7852 14.3594 34.9062 14.5625 35.0156C14.7656 35.1172 14.9375 35.1953 15.0781 35.25C15.2266 35.3047 15.4414 35.375 15.7227 35.4609C16.0117 35.5469 16.2617 35.6367 16.4727 35.7305C16.6914 35.8242 16.918 35.9453 17.1523 36.0938C17.3867 36.2422 17.5664 36.4258 17.6914 36.6445C17.8242 36.8633 17.8906 37.1055 17.8906 37.3711C17.8906 37.8867 17.6641 38.3242 17.2109 38.6836C16.7578 39.0352 16.1328 39.2109 15.3359 39.2109C14.7422 39.2109 14.2148 39.0781 13.7539 38.8125C13.293 38.5469 12.9297 38.1758 12.6641 37.6992ZM18.5 33.4688V32.543H19.5898V30.5273H20.6914V32.543H22.3086V33.4688H20.6914V37.043C20.6914 37.4102 20.7617 37.6719 20.9023 37.8281C21.043 37.9844 21.2656 38.0625 21.5703 38.0625H22.3203V39H21.4297C20.2031 39 19.5898 38.3789 19.5898 37.1367V33.4688H18.5ZM24.2773 35.7773C24.2773 36.5664 24.4531 37.1836 24.8047 37.6289C25.1562 38.0664 25.5859 38.2852 26.0938 38.2852C26.5938 38.2852 27.0195 38.0664 27.3711 37.6289C27.7227 37.1836 27.8984 36.5664 27.8984 35.7773C27.8984 34.9727 27.7227 34.3516 27.3711 33.9141C27.0195 33.4766 26.5938 33.2578 26.0938 33.2578C25.5938 33.2578 25.1641 33.4766 24.8047 33.9141C24.4531 34.3438 24.2773 34.9648 24.2773 35.7773ZM23.1523 35.7773C23.1523 34.8008 23.4062 33.9844 23.9141 33.3281C24.4219 32.6641 25.1484 32.332 26.0938 32.332C27.0234 32.332 27.7422 32.6641 28.25 33.3281C28.7656 33.9844 29.0234 34.8008 29.0234 35.7773C29.0234 36.1836 28.9688 36.5781 28.8594 36.9609C28.7578 37.3438 28.5977 37.7109 28.3789 38.0625C28.168 38.4062 27.8633 38.6836 27.4648 38.8945C27.0664 39.1055 26.6094 39.2109 26.0938 39.2109C25.5781 39.2109 25.1211 39.1094 24.7227 38.9062C24.332 38.6953 24.0234 38.418 23.7969 38.0742C23.5781 37.7305 23.4141 37.3672 23.3047 36.9844C23.2031 36.5938 23.1523 36.1914 23.1523 35.7773ZM30.3828 39V32.543H31.4375V33.3984C31.5625 33.125 31.7695 32.8789 32.0586 32.6602C32.3477 32.4414 32.707 32.332 33.1367 32.332C33.4648 32.332 33.7617 32.3867 34.0273 32.4961V33.4922C33.7461 33.3828 33.4492 33.3281 33.1367 33.3281C32.6133 33.3281 32.207 33.5273 31.918 33.9258C31.6367 34.3242 31.4961 34.8516 31.4961 35.5078V39H30.3828ZM34.4141 32.543H35.6562L36.9102 36.1641C37.1367 36.8203 37.3047 37.3477 37.4141 37.7461H37.4609C37.6875 36.9961 37.8477 36.4688 37.9414 36.1641L39.125 32.543H40.3555L37.6133 39.9961C37.3789 40.6445 37.0898 41.0977 36.7461 41.3555C36.4102 41.6211 35.9961 41.7539 35.5039 41.7539H35.1172V40.8398H35.3281C35.6484 40.8398 35.9141 40.7578 36.125 40.5938C36.3359 40.4297 36.5156 40.1367 36.6641 39.7148L36.8984 39L34.4141 32.543Z" fill="#B5B5B5"/>
</svg>
