<svg width="25" height="24" viewBox="0 0 25 24" fill="none" xmlns="http://www.w3.org/2000/svg">
<path d="M22.7 12V20C22.7 20.5304 22.4892 21.0391 22.1142 21.4142C21.7391 21.7893 21.2304 22 20.7 22H4.69995C4.16952 22 3.66081 21.7893 3.28574 21.4142C2.91066 21.0391 2.69995 20.5304 2.69995 20V12C2.43473 12 2.18038 11.8946 1.99284 11.7071C1.80531 11.5196 1.69995 11.2652 1.69995 11V8C1.69995 7.46957 1.91066 6.96086 2.28574 6.58579C2.66081 6.21071 3.16952 6 3.69995 6H6.86995C6.75995 5.69 6.69995 5.35 6.69995 5C6.69995 4.20435 7.01602 3.44129 7.57863 2.87868C8.14124 2.31607 8.9043 2 9.69995 2C10.7 2 11.58 2.5 12.13 3.24V3.23L12.7 4L13.27 3.23V3.24C13.82 2.5 14.7 2 15.7 2C16.4956 2 17.2587 2.31607 17.8213 2.87868C18.3839 3.44129 18.7 4.20435 18.7 5C18.7 5.35 18.64 5.69 18.53 6H21.7C22.2304 6 22.7391 6.21071 23.1142 6.58579C23.4892 6.96086 23.7 7.46957 23.7 8V11C23.7 11.2652 23.5946 11.5196 23.4071 11.7071C23.2195 11.8946 22.9652 12 22.7 12ZM4.69995 20H11.7V12H4.69995V20ZM20.7 20V12H13.7V20H20.7ZM9.69995 4C9.43473 4 9.18038 4.10536 8.99284 4.29289C8.80531 4.48043 8.69995 4.73478 8.69995 5C8.69995 5.26522 8.80531 5.51957 8.99284 5.70711C9.18038 5.89464 9.43473 6 9.69995 6C9.96517 6 10.2195 5.89464 10.4071 5.70711C10.5946 5.51957 10.7 5.26522 10.7 5C10.7 4.73478 10.5946 4.48043 10.4071 4.29289C10.2195 4.10536 9.96517 4 9.69995 4ZM15.7 4C15.4347 4 15.1804 4.10536 14.9928 4.29289C14.8053 4.48043 14.7 4.73478 14.7 5C14.7 5.26522 14.8053 5.51957 14.9928 5.70711C15.1804 5.89464 15.4347 6 15.7 6C15.9652 6 16.2195 5.89464 16.4071 5.70711C16.5946 5.51957 16.7 5.26522 16.7 5C16.7 4.73478 16.5946 4.48043 16.4071 4.29289C16.2195 4.10536 15.9652 4 15.7 4ZM3.69995 8V10H11.7V8H3.69995ZM13.7 8V10H21.7V8H13.7Z" fill="#B5B5B5"/>
</svg>
