<svg width="19" height="24" viewBox="0 0 19 24" fill="none" xmlns="http://www.w3.org/2000/svg">
<path d="M2.41 0.0268068C1.3166 0.177581 0.549241 0.875899 0.219235 2.02257C0.00850884 2.73676 -0.00341908 3.0145 0.000556893 6.34342L0.00453287 9.40649L0.0959802 8.91053C0.509481 6.67274 1.65854 4.68094 3.3523 3.2605C4.00834 2.71295 4.79955 2.19318 5.35222 1.95115L5.51523 1.87973L5.44366 1.66547C5.16137 0.852093 4.56497 0.284709 3.78568 0.0863228C3.47556 0.0069685 2.77181 -0.0247736 2.41 0.0268068Z" fill="#9955BB"/>
<path d="M15.5229 0.0228701C14.6322 0.165708 13.9961 0.669609 13.6303 1.52664L13.5229 1.7766L13.9802 2.0107C14.9106 2.48682 15.666 3.03834 16.4373 3.81204C17.6381 5.00633 18.4651 6.43867 18.9541 8.15669C19.0098 8.35111 19.0177 3.24863 18.9621 2.80027C18.8945 2.24876 18.7712 1.81231 18.5764 1.41157C18.4293 1.10209 18.3418 0.979091 18.0913 0.73706C17.7494 0.399804 17.4353 0.225224 16.9502 0.102224C16.5884 0.0109673 15.8688 -0.0287104 15.5229 0.0228701Z" fill="#9955BB"/>
<path d="M13.2366 4.66112V5.64511L13.4672 5.82763C14.652 6.76004 15.4909 8.24 15.6977 9.75567C15.7534 10.1524 15.7534 11.0174 15.7017 11.4419C15.5784 12.4101 15.0934 13.5448 14.4532 14.3622C14.163 14.7312 13.5427 15.3422 13.3598 15.4335L13.2366 15.5009V18.1315C13.2366 19.6472 13.2525 20.9407 13.2763 21.1748C13.4036 22.4444 13.8926 23.3253 14.6838 23.7101C15.1808 23.9561 15.4273 24.0037 16.1192 23.9998C17.0893 23.9958 17.5823 23.8173 18.131 23.2737C18.4809 22.9325 18.7035 22.5238 18.8387 21.9842C18.9938 21.3652 19.0017 21.1152 18.9978 16.9253C18.9938 12.906 18.9938 12.8624 18.9222 13.1362C18.453 14.9256 17.2722 16.7587 15.809 17.9688C15.2484 18.4331 15.1768 18.4727 14.8707 18.4727C14.5606 18.4727 14.3419 18.3617 14.1749 18.1196C13.8409 17.6395 13.9801 17.1396 14.5765 16.6595C15.2126 16.1516 15.9084 15.3502 16.3458 14.6241C16.7871 13.89 17.1251 13.0052 17.3199 12.0768C17.4193 11.5888 17.4272 11.4816 17.4272 10.5968C17.4272 9.71202 17.4193 9.6049 17.3199 9.11687C16.9382 7.27981 16.0396 5.75621 14.656 4.6016C14.1988 4.21673 13.3797 3.67316 13.2604 3.67316C13.2485 3.67316 13.2366 4.11754 13.2366 4.66112Z" fill="#9955BB"/>
<path d="M5.48347 3.92315C4.75984 4.3596 4.11971 4.91508 3.5591 5.59753C2.92294 6.36727 2.50547 7.1013 2.19137 8.00594C1.27292 10.6326 1.8057 13.5052 3.61079 15.6636C3.92489 16.0366 4.39803 16.4929 4.77177 16.7865C5.26479 17.1674 5.31648 17.8856 4.87912 18.2546C4.67635 18.4252 4.50141 18.4847 4.25092 18.4648C3.98453 18.445 3.80163 18.3299 3.15753 17.7626C1.56316 16.358 0.445913 14.3344 0.0761481 12.1641C0.00458057 11.7515 0.00458057 11.7832 0.000604596 16.2429C-0.00337138 19.2028 0.0125325 20.8693 0.0403643 21.1192C0.211331 22.6428 0.88327 23.5792 2.00847 23.857C2.38619 23.9482 3.2609 23.9482 3.61476 23.857C4.50538 23.6229 5.15744 22.9841 5.48745 22.0318C5.7101 21.3891 5.72203 21.1827 5.72203 18.1435V15.37L5.39997 15.0685C4.14357 13.8901 3.45572 12.3069 3.45572 10.5969C3.45572 8.8828 4.12766 7.33142 5.39997 6.12127L5.72203 5.81179L5.71408 4.80399L5.70215 3.79222L5.48347 3.92315Z" fill="#9955BB"/>
<path d="M5.89316 8.30751C5.10592 9.62083 5.03832 11.1801 5.71026 12.5411C5.98063 13.0886 5.81364 13.037 7.28872 13.037L8.56501 13.0331L8.33838 12.914C7.12173 12.2514 6.61679 10.7239 7.20523 9.48593C7.50343 8.86696 8.02826 8.371 8.6326 8.1369L8.88309 8.04168L7.47162 8.03771H6.05617L5.89316 8.30751Z" fill="#9955BB"/>
<path d="M10.5687 8.13673C11.1571 8.36289 11.7018 8.87076 11.9801 9.44211C12.6004 10.7316 12.0954 12.2671 10.8311 12.9337L10.6323 13.0369H11.9245H13.2167L13.3399 12.8266C13.7813 12.0886 13.9801 11.2752 13.9443 10.3944C13.9085 9.63653 13.7097 8.97789 13.328 8.34702L13.1411 8.03754H11.7297L10.3142 8.04151L10.5687 8.13673Z" fill="#9955BB"/>
<path d="M9.24089 9.81909C8.81547 10.0095 8.62462 10.5412 8.82739 10.9578C9.22499 11.7791 10.4536 11.5054 10.4536 10.5968C10.4536 9.97383 9.80946 9.56118 9.24089 9.81909Z" fill="#9955BB"/>
</svg>
