<svg width="23" height="21" viewBox="0 0 23 21" fill="none" xmlns="http://www.w3.org/2000/svg">
<path d="M16.3501 3.36C18.3701 5.56 18.3701 8.61 16.3501 10.63L14.6701 8.94C15.5101 7.76 15.5101 6.23 14.6701 5.05L16.3501 3.36ZM19.6601 0C23.6001 4.05 23.5601 10.11 19.6601 14L18.0301 12.37C20.8001 9.19 20.8001 4.65 18.0301 1.63L19.6601 0ZM12.9601 12.76C14.9101 13.42 16.6001 14.5 16.6001 16V21H0.600098V16C0.600098 14.5 2.2901 13.42 4.2501 12.76L4.8701 14L5.1001 14.5C3.6001 14.96 2.5001 15.62 2.5001 16V19.1H6.7201L7.6001 14.03L6.6601 12.15C7.2801 12.08 7.9301 12.03 8.6001 12.03C9.2701 12.03 9.9201 12.08 10.5401 12.15L9.6001 14.03L10.4801 19.1H14.7001V16C14.7001 15.62 13.6001 14.96 12.1001 14.5L12.3301 14L12.9601 12.76ZM8.6001 5C7.5001 5 6.6001 5.9 6.6001 7C6.6001 8.1 7.5001 9 8.6001 9C9.7001 9 10.6001 8.1 10.6001 7C10.6001 5.9 9.7001 5 8.6001 5ZM8.6001 11C6.3901 11 4.6001 9.21 4.6001 7C4.6001 4.79 6.3901 3 8.6001 3C10.8101 3 12.6001 4.79 12.6001 7C12.6001 9.21 10.8101 11 8.6001 11Z" fill="#B5B5B5"/>
</svg>
